# xmcd
#
# Track frame offsets: 
#        150
#        6805
#        20638
#        37866
#        55803
#        71947
#        82957
#        101771
#        118583
#        123523
#        140347
#
# Disc length: 2149 seconds
#
# Revision: 0
# Processed by: cddbd v1.5.2PL0 Copyright (c) Steve Scherf et al.
# Submitted via: ExactAudioCopy v1.0b1
#
DISCID=9008630b
DTITLE=Felix Zenger - Won't Say a Thing
DYEAR=2011
DGENRE=Hip-Hop
TTITLE0=Won’t Say A Thing (Beatbox Intro)
TTITLE1=Warzone (feat. Tuomo)
TTITLE2=Connect (feat. Bahamadia)
TTITLE3=Pitkät Päivät Täällä (feat. Asa and Kari Tapio)
TTITLE4=What It Like (feat. Blu)
TTITLE5=Clap Trap (feat. P-Love)
TTITLE6=The Static (feat. Father Metro and Kid Koala)
TTITLE7=I Has A Dog
TTITLE8=Recharge (Skit)
TTITLE9=Concrete Lullaby (feat. Redrama)
TTITLE10=Mist (feat. Verneri Pohjola)
EXTD=
EXTT0=
EXTT1=
EXTT2=
EXTT3=
EXTT4=
EXTT5=
EXTT6=
EXTT7=
EXTT8=
EXTT9=
EXTT10=
PLAYORDER=
